<svg width="230" height="50" viewBox="0 0 230 50" fill="none" xmlns="http://www.w3.org/2000/svg">
<g filter="url(#filter0_d_1451_25752)">
<rect width="230" height="49" rx="3" fill="white"/>
<rect x="0.5" y="0.5" width="229" height="48" rx="2.5" stroke="black"/>
<path d="M49.6989 31.5H46.733L51.2521 18.4091H54.8189L59.3317 31.5H56.3658L53.0866 21.4006H52.9844L49.6989 31.5ZM49.5135 26.3544H56.5192V28.5149H49.5135V26.3544ZM64.8352 31.6918C63.8295 31.6918 62.9645 31.4787 62.2401 31.0526C61.5199 30.6222 60.9659 30.0256 60.5781 29.2628C60.1946 28.5 60.0028 27.6222 60.0028 26.6293C60.0028 25.6236 60.1967 24.7415 60.5845 23.983C60.9766 23.2202 61.5327 22.6257 62.2528 22.1996C62.973 21.7692 63.8295 21.554 64.8224 21.554C65.679 21.554 66.429 21.7095 67.0724 22.0206C67.7159 22.3317 68.2251 22.7685 68.6001 23.331C68.9751 23.8935 69.1818 24.554 69.2202 25.3125H66.6506C66.5781 24.8224 66.3864 24.4283 66.0753 24.13C65.7685 23.8274 65.3658 23.6761 64.8672 23.6761C64.4453 23.6761 64.0767 23.7912 63.7614 24.0213C63.4503 24.2472 63.2074 24.5774 63.0327 25.0121C62.858 25.4467 62.7706 25.973 62.7706 26.5909C62.7706 27.2173 62.8558 27.75 63.0263 28.1889C63.201 28.6278 63.446 28.9624 63.7614 29.1925C64.0767 29.4226 64.4453 29.5376 64.8672 29.5376C65.1783 29.5376 65.4574 29.4737 65.7045 29.3459C65.956 29.218 66.1626 29.0327 66.3246 28.7898C66.4908 28.5426 66.5994 28.2464 66.6506 27.9013H69.2202C69.1776 28.6513 68.973 29.3118 68.6065 29.8828C68.2443 30.4496 67.7436 30.8928 67.1044 31.2124C66.4652 31.532 65.7088 31.6918 64.8352 31.6918ZM75.3997 31.6918C74.394 31.6918 73.5289 31.4787 72.8045 31.0526C72.0843 30.6222 71.5304 30.0256 71.1426 29.2628C70.7591 28.5 70.5673 27.6222 70.5673 26.6293C70.5673 25.6236 70.7612 24.7415 71.149 23.983C71.541 23.2202 72.0971 22.6257 72.8173 22.1996C73.5375 21.7692 74.394 21.554 75.3869 21.554C76.2434 21.554 76.9934 21.7095 77.6369 22.0206C78.2804 22.3317 78.7896 22.7685 79.1646 23.331C79.5396 23.8935 79.7463 24.554 79.7846 25.3125H77.215C77.1426 24.8224 76.9508 24.4283 76.6397 24.13C76.3329 23.8274 75.9302 23.6761 75.4316 23.6761C75.0098 23.6761 74.6412 23.7912 74.3258 24.0213C74.0147 24.2472 73.7718 24.5774 73.5971 25.0121C73.4224 25.4467 73.335 25.973 73.335 26.5909C73.335 27.2173 73.4203 27.75 73.5907 28.1889C73.7654 28.6278 74.0105 28.9624 74.3258 29.1925C74.6412 29.4226 75.0098 29.5376 75.4316 29.5376C75.7427 29.5376 76.0218 29.4737 76.269 29.3459C76.5204 29.218 76.7271 29.0327 76.889 28.7898C77.0552 28.5426 77.1639 28.2464 77.215 27.9013H79.7846C79.742 28.6513 79.5375 29.3118 79.171 29.8828C78.8088 30.4496 78.3081 30.8928 77.6689 31.2124C77.0297 31.532 76.2733 31.6918 75.3997 31.6918ZM86.0025 31.6918C84.9925 31.6918 84.1232 31.4872 83.3945 31.0781C82.6701 30.6648 82.1119 30.081 81.7198 29.3267C81.3278 28.5682 81.1317 27.6712 81.1317 26.6357C81.1317 25.6257 81.3278 24.7393 81.7198 23.9766C82.1119 23.2138 82.6637 22.6193 83.3754 22.1932C84.0913 21.767 84.9308 21.554 85.8938 21.554C86.5415 21.554 87.1445 21.6584 87.7028 21.8672C88.2653 22.0717 88.7553 22.3807 89.1729 22.794C89.5948 23.2074 89.9229 23.7273 90.1573 24.3537C90.3917 24.9759 90.5089 25.7045 90.5089 26.5398V27.2876H82.2184V25.6001H87.9457C87.9457 25.2081 87.8604 24.8608 87.69 24.5582C87.5195 24.2557 87.283 24.0192 86.9805 23.8487C86.6822 23.674 86.3349 23.5866 85.9386 23.5866C85.5252 23.5866 85.1587 23.6825 84.8391 23.8743C84.5238 24.0618 84.2766 24.3153 84.0977 24.6349C83.9187 24.9503 83.8271 25.3018 83.8228 25.6896V27.294C83.8228 27.7798 83.9123 28.1996 84.0913 28.5533C84.2745 28.907 84.5323 29.1797 84.8647 29.3714C85.1971 29.5632 85.5913 29.6591 86.0472 29.6591C86.3498 29.6591 86.6268 29.6165 86.8782 29.5312C87.1296 29.446 87.3448 29.3182 87.5238 29.1477C87.7028 28.9773 87.8391 28.7685 87.9329 28.5213L90.4514 28.6875C90.3235 29.2926 90.0614 29.821 89.6651 30.2727C89.2731 30.7202 88.766 31.0696 88.1438 31.321C87.5259 31.5682 86.8121 31.6918 86.0025 31.6918ZM100.455 24.4815L97.962 24.6349C97.9194 24.4219 97.8278 24.2301 97.6871 24.0597C97.5465 23.8849 97.3612 23.7464 97.131 23.6442C96.9052 23.5376 96.6346 23.4844 96.3192 23.4844C95.8974 23.4844 95.5415 23.5739 95.2518 23.7528C94.962 23.9276 94.8171 24.1619 94.8171 24.456C94.8171 24.6903 94.9109 24.8885 95.0984 25.0504C95.2859 25.2124 95.6076 25.3423 96.0636 25.4403L97.8406 25.7983C98.7951 25.9943 99.5067 26.3097 99.9755 26.7443C100.444 27.179 100.679 27.75 100.679 28.4574C100.679 29.1009 100.489 29.6655 100.11 30.1513C99.7347 30.6371 99.2191 31.0163 98.5629 31.2891C97.9109 31.5575 97.1587 31.6918 96.3065 31.6918C95.0067 31.6918 93.9712 31.4212 93.1999 30.88C92.4329 30.3345 91.9833 29.593 91.8512 28.6555L94.5295 28.5149C94.6104 28.9112 94.8065 29.2138 95.1175 29.4226C95.4286 29.6271 95.8271 29.7294 96.3129 29.7294C96.7901 29.7294 97.1737 29.6378 97.4634 29.4545C97.7575 29.267 97.9066 29.0263 97.9109 28.7322C97.9066 28.4851 97.8022 28.2827 97.5977 28.125C97.3931 27.9631 97.0778 27.8395 96.6516 27.7543L94.9513 27.4155C93.9925 27.2237 93.2788 26.8913 92.81 26.4183C92.3455 25.9453 92.1133 25.3423 92.1133 24.6094C92.1133 23.9787 92.2837 23.4354 92.6246 22.9794C92.9698 22.5234 93.4535 22.1719 94.0756 21.9247C94.7021 21.6776 95.435 21.554 96.2745 21.554C97.5146 21.554 98.4904 21.8161 99.2021 22.3402C99.918 22.8643 100.336 23.5781 100.455 24.4815ZM110.562 24.4815L108.069 24.6349C108.027 24.4219 107.935 24.2301 107.795 24.0597C107.654 23.8849 107.469 23.7464 107.238 23.6442C107.013 23.5376 106.742 23.4844 106.427 23.4844C106.005 23.4844 105.649 23.5739 105.359 23.7528C105.069 23.9276 104.925 24.1619 104.925 24.456C104.925 24.6903 105.018 24.8885 105.206 25.0504C105.393 25.2124 105.715 25.3423 106.171 25.4403L107.948 25.7983C108.903 25.9943 109.614 26.3097 110.083 26.7443C110.552 27.179 110.786 27.75 110.786 28.4574C110.786 29.1009 110.596 29.6655 110.217 30.1513C109.842 30.6371 109.327 31.0163 108.67 31.2891C108.018 31.5575 107.266 31.6918 106.414 31.6918C105.114 31.6918 104.079 31.4212 103.307 30.88C102.54 30.3345 102.091 29.593 101.959 28.6555L104.637 28.5149C104.718 28.9112 104.914 29.2138 105.225 29.4226C105.536 29.6271 105.934 29.7294 106.42 29.7294C106.898 29.7294 107.281 29.6378 107.571 29.4545C107.865 29.267 108.014 29.0263 108.018 28.7322C108.014 28.4851 107.91 28.2827 107.705 28.125C107.501 27.9631 107.185 27.8395 106.759 27.7543L105.059 27.4155C104.1 27.2237 103.386 26.8913 102.917 26.4183C102.453 25.9453 102.221 25.3423 102.221 24.6094C102.221 23.9787 102.391 23.4354 102.732 22.9794C103.077 22.5234 103.561 22.1719 104.183 21.9247C104.809 21.6776 105.542 21.554 106.382 21.554C107.622 21.554 108.598 21.8161 109.309 22.3402C110.025 22.8643 110.443 23.5781 110.562 24.4815ZM116.219 20.6911V18.4091H126.971V20.6911H122.963V31.5H120.227V20.6911H116.219ZM131.413 25.8239V31.5H128.69V18.4091H131.336V23.4141H131.452C131.673 22.8345 132.031 22.3807 132.525 22.0526C133.02 21.7202 133.64 21.554 134.385 21.554C135.067 21.554 135.662 21.7031 136.169 22.0014C136.68 22.2955 137.077 22.7195 137.358 23.2734C137.643 23.8232 137.784 24.4815 137.78 25.2486V31.5H135.057V25.7344C135.061 25.1293 134.907 24.6584 134.596 24.3217C134.29 23.9851 133.859 23.8168 133.305 23.8168C132.934 23.8168 132.606 23.8956 132.321 24.0533C132.04 24.2109 131.818 24.4411 131.656 24.7436C131.498 25.0419 131.417 25.402 131.413 25.8239ZM144.397 31.6918C143.387 31.6918 142.518 31.4872 141.789 31.0781C141.065 30.6648 140.506 30.081 140.114 29.3267C139.722 28.5682 139.526 27.6712 139.526 26.6357C139.526 25.6257 139.722 24.7393 140.114 23.9766C140.506 23.2138 141.058 22.6193 141.77 22.1932C142.486 21.767 143.325 21.554 144.288 21.554C144.936 21.554 145.539 21.6584 146.097 21.8672C146.66 22.0717 147.15 22.3807 147.567 22.794C147.989 23.2074 148.317 23.7273 148.552 24.3537C148.786 24.9759 148.903 25.7045 148.903 26.5398V27.2876H140.613V25.6001H146.34C146.34 25.2081 146.255 24.8608 146.085 24.5582C145.914 24.2557 145.678 24.0192 145.375 23.8487C145.077 23.674 144.729 23.5866 144.333 23.5866C143.92 23.5866 143.553 23.6825 143.234 23.8743C142.918 24.0618 142.671 24.3153 142.492 24.6349C142.313 24.9503 142.222 25.3018 142.217 25.6896V27.294C142.217 27.7798 142.307 28.1996 142.486 28.5533C142.669 28.907 142.927 29.1797 143.259 29.3714C143.592 29.5632 143.986 29.6591 144.442 29.6591C144.744 29.6591 145.021 29.6165 145.273 29.5312C145.524 29.446 145.739 29.3182 145.918 29.1477C146.097 28.9773 146.234 28.7685 146.327 28.5213L148.846 28.6875C148.718 29.2926 148.456 29.821 148.06 30.2727C147.668 30.7202 147.161 31.0696 146.538 31.321C145.92 31.5682 145.207 31.6918 144.397 31.6918ZM154.898 31.5V18.4091H160.139C161.102 18.4091 161.905 18.5518 162.549 18.8374C163.192 19.1229 163.676 19.5192 164 20.0263C164.324 20.5291 164.486 21.1087 164.486 21.7649C164.486 22.2763 164.383 22.7259 164.179 23.1136C163.974 23.4972 163.693 23.8125 163.335 24.0597C162.981 24.3026 162.577 24.4751 162.121 24.5774V24.7053C162.619 24.7266 163.086 24.8672 163.52 25.1271C163.959 25.3871 164.315 25.7514 164.588 26.2202C164.861 26.6847 164.997 27.2386 164.997 27.8821C164.997 28.5767 164.824 29.1967 164.479 29.7422C164.138 30.2834 163.633 30.7116 162.964 31.027C162.295 31.3423 161.471 31.5 160.491 31.5H154.898ZM157.665 29.2372H159.922C160.693 29.2372 161.256 29.0902 161.609 28.7962C161.963 28.4979 162.14 28.1016 162.14 27.6072C162.14 27.245 162.052 26.9254 161.878 26.6484C161.703 26.3714 161.454 26.1541 161.13 25.9964C160.81 25.8388 160.429 25.7599 159.986 25.7599H157.665V29.2372ZM157.665 23.8871H159.717C160.096 23.8871 160.433 23.821 160.727 23.6889C161.025 23.5526 161.26 23.3608 161.43 23.1136C161.605 22.8665 161.692 22.5703 161.692 22.2251C161.692 21.7521 161.524 21.3707 161.187 21.081C160.855 20.7912 160.382 20.6463 159.768 20.6463H157.665V23.8871ZM171.183 31.6918C170.19 31.6918 169.331 31.4808 168.607 31.0589C167.887 30.6328 167.331 30.0405 166.939 29.282C166.547 28.5192 166.35 27.6349 166.35 26.6293C166.35 25.6151 166.547 24.7287 166.939 23.9702C167.331 23.2074 167.887 22.6151 168.607 22.1932C169.331 21.767 170.19 21.554 171.183 21.554C172.176 21.554 173.032 21.767 173.752 22.1932C174.477 22.6151 175.035 23.2074 175.427 23.9702C175.819 24.7287 176.015 25.6151 176.015 26.6293C176.015 27.6349 175.819 28.5192 175.427 29.282C175.035 30.0405 174.477 30.6328 173.752 31.0589C173.032 31.4808 172.176 31.6918 171.183 31.6918ZM171.196 29.5824C171.647 29.5824 172.025 29.4545 172.327 29.1989C172.63 28.9389 172.858 28.5852 173.011 28.1378C173.169 27.6903 173.248 27.1811 173.248 26.6101C173.248 26.0391 173.169 25.5298 173.011 25.0824C172.858 24.6349 172.63 24.2812 172.327 24.0213C172.025 23.7614 171.647 23.6314 171.196 23.6314C170.74 23.6314 170.356 23.7614 170.045 24.0213C169.738 24.2812 169.506 24.6349 169.348 25.0824C169.195 25.5298 169.118 26.0391 169.118 26.6101C169.118 27.1811 169.195 27.6903 169.348 28.1378C169.506 28.5852 169.738 28.9389 170.045 29.1989C170.356 29.4545 170.74 29.5824 171.196 29.5824ZM183.008 21.6818V23.7273H177.096V21.6818H183.008ZM178.438 19.3295H181.161V28.483C181.161 28.7344 181.199 28.9304 181.276 29.071C181.353 29.2074 181.459 29.3033 181.596 29.3587C181.736 29.4141 181.898 29.4418 182.081 29.4418C182.209 29.4418 182.337 29.4311 182.465 29.4098C182.593 29.3842 182.691 29.3651 182.759 29.3523L183.187 31.3786C183.051 31.4212 182.859 31.4702 182.612 31.5256C182.365 31.5852 182.064 31.6214 181.711 31.6342C181.054 31.6598 180.479 31.5724 179.985 31.3722C179.495 31.1719 179.113 30.8608 178.841 30.4389C178.568 30.017 178.434 29.4844 178.438 28.8409V19.3295Z" fill="black"/>
</g>
<defs>
<filter id="filter0_d_1451_25752" x="0" y="0" width="230" height="50" filterUnits="userSpaceOnUse" color-interpolation-filters="sRGB">
<feFlood flood-opacity="0" result="BackgroundImageFix"/>
<feColorMatrix in="SourceAlpha" type="matrix" values="0 0 0 0 0 0 0 0 0 0 0 0 0 0 0 0 0 0 127 0" result="hardAlpha"/>
<feOffset dy="1"/>
<feComposite in2="hardAlpha" operator="out"/>
<feColorMatrix type="matrix" values="0 0 0 0 0 0 0 0 0 0 0 0 0 0 0 0 0 0 1 0"/>
<feBlend mode="normal" in2="BackgroundImageFix" result="effect1_dropShadow_1451_25752"/>
<feBlend mode="normal" in="SourceGraphic" in2="effect1_dropShadow_1451_25752" result="shape"/>
</filter>
</defs>
</svg>
