<svg width="126" height="50" viewBox="0 0 126 50" fill="none" xmlns="http://www.w3.org/2000/svg">
<g filter="url(#filter0_d_1451_25551)">
<rect width="126" height="49" rx="3" fill="white"/>
<rect x="0.5" y="0.5" width="125" height="48" rx="2.5" stroke="black"/>
<path d="M30.4861 22.9922H27.6863C27.6352 22.63 27.5308 22.3082 27.3731 22.027C27.2155 21.7415 27.0131 21.4986 26.7659 21.2983C26.5187 21.098 26.2332 20.9446 25.9094 20.8381C25.5898 20.7315 25.2425 20.6783 24.8675 20.6783C24.1899 20.6783 23.5997 20.8466 23.0969 21.1832C22.594 21.5156 22.2041 22.0014 21.9271 22.6406C21.6501 23.2756 21.5116 24.0469 21.5116 24.9545C21.5116 25.8878 21.6501 26.6719 21.9271 27.3068C22.2084 27.9418 22.6004 28.4212 23.1032 28.745C23.6061 29.0689 24.1878 29.2308 24.8483 29.2308C25.219 29.2308 25.5621 29.1818 25.8774 29.0838C26.197 28.9858 26.4804 28.843 26.7275 28.6555C26.9747 28.4638 27.1792 28.2315 27.3412 27.9588C27.5074 27.6861 27.6224 27.375 27.6863 27.0256L30.4861 27.0384C30.4136 27.6392 30.2325 28.2188 29.9427 28.777C29.6572 29.331 29.2716 29.8274 28.7858 30.2663C28.3042 30.701 27.729 31.0462 27.0599 31.3018C26.3952 31.5533 25.643 31.679 24.8035 31.679C23.6359 31.679 22.5919 31.4148 21.6714 30.8864C20.7552 30.358 20.0308 29.593 19.4981 28.5916C18.9697 27.5902 18.7055 26.3778 18.7055 24.9545C18.7055 23.527 18.974 22.3125 19.5109 21.3111C20.0479 20.3097 20.7765 19.5469 21.697 19.0227C22.6175 18.4943 23.653 18.2301 24.8035 18.2301C25.5621 18.2301 26.2652 18.3366 26.9129 18.5497C27.5649 18.7628 28.1423 19.0739 28.6452 19.483C29.148 19.8878 29.5571 20.3842 29.8724 20.9723C30.192 21.5604 30.3966 22.2337 30.4861 22.9922ZM35.1427 18.4091V31.5H32.4197V18.4091H35.1427ZM37.324 31.5V21.6818H40.047V31.5H37.324ZM38.6919 20.4162C38.287 20.4162 37.9397 20.282 37.6499 20.0135C37.3644 19.7408 37.2217 19.4148 37.2217 19.0355C37.2217 18.6605 37.3644 18.3388 37.6499 18.0703C37.9397 17.7976 38.287 17.6612 38.6919 17.6612C39.0967 17.6612 39.4419 17.7976 39.7274 18.0703C40.0171 18.3388 40.162 18.6605 40.162 19.0355C40.162 19.4148 40.0171 19.7408 39.7274 20.0135C39.4419 20.282 39.0967 20.4162 38.6919 20.4162ZM46.6643 31.6918C45.6586 31.6918 44.7936 31.4787 44.0692 31.0526C43.349 30.6222 42.795 30.0256 42.4072 29.2628C42.0237 28.5 41.8319 27.6222 41.8319 26.6293C41.8319 25.6236 42.0258 24.7415 42.4136 23.983C42.8057 23.2202 43.3618 22.6257 44.0819 22.1996C44.8021 21.7692 45.6586 21.554 46.6515 21.554C47.5081 21.554 48.2581 21.7095 48.9015 22.0206C49.545 22.3317 50.0542 22.7685 50.4292 23.331C50.8042 23.8935 51.0109 24.554 51.0493 25.3125H48.4797C48.4072 24.8224 48.2155 24.4283 47.9044 24.13C47.5976 23.8274 47.1949 23.6761 46.6963 23.6761C46.2744 23.6761 45.9058 23.7912 45.5905 24.0213C45.2794 24.2472 45.0365 24.5774 44.8618 25.0121C44.6871 25.4467 44.5997 25.973 44.5997 26.5909C44.5997 27.2173 44.6849 27.75 44.8554 28.1889C45.0301 28.6278 45.2751 28.9624 45.5905 29.1925C45.9058 29.4226 46.2744 29.5376 46.6963 29.5376C47.0074 29.5376 47.2865 29.4737 47.5336 29.3459C47.7851 29.218 47.9917 29.0327 48.1537 28.7898C48.3199 28.5426 48.4285 28.2464 48.4797 27.9013H51.0493C51.0067 28.6513 50.8021 29.3118 50.4356 29.8828C50.0734 30.4496 49.5727 30.8928 48.9335 31.2124C48.2943 31.532 47.5379 31.6918 46.6643 31.6918ZM55.26 28.6747L55.2664 25.4084H55.6627L58.8076 21.6818H61.9333L57.7082 26.6165H57.0626L55.26 28.6747ZM52.7927 31.5V18.4091H55.5157V31.5H52.7927ZM58.9291 31.5L56.0399 27.2237L57.8552 25.2997L62.1187 31.5H58.9291ZM67.4864 31.5V18.4091H70.2542V23.8104H75.8728V18.4091H78.6341V31.5H75.8728V26.0923H70.2542V31.5H67.4864ZM85.3394 31.6918C84.3295 31.6918 83.4601 31.4872 82.7314 31.0781C82.007 30.6648 81.4488 30.081 81.0567 29.3267C80.6647 28.5682 80.4687 27.6712 80.4687 26.6357C80.4687 25.6257 80.6647 24.7393 81.0567 23.9766C81.4488 23.2138 82.0006 22.6193 82.7123 22.1932C83.4282 21.767 84.2677 21.554 85.2307 21.554C85.8785 21.554 86.4814 21.6584 87.0397 21.8672C87.6022 22.0717 88.0922 22.3807 88.5099 22.794C88.9317 23.2074 89.2599 23.7273 89.4942 24.3537C89.7286 24.9759 89.8458 25.7045 89.8458 26.5398V27.2876H81.5553V25.6001H87.2826C87.2826 25.2081 87.1974 24.8608 87.0269 24.5582C86.8564 24.2557 86.6199 24.0192 86.3174 23.8487C86.0191 23.674 85.6718 23.5866 85.2755 23.5866C84.8621 23.5866 84.4957 23.6825 84.176 23.8743C83.8607 24.0618 83.6135 24.3153 83.4346 24.6349C83.2556 24.9503 83.164 25.3018 83.1597 25.6896V27.294C83.1597 27.7798 83.2492 28.1996 83.4282 28.5533C83.6114 28.907 83.8692 29.1797 84.2016 29.3714C84.534 29.5632 84.9282 29.6591 85.3841 29.6591C85.6867 29.6591 85.9637 29.6165 86.2151 29.5312C86.4665 29.446 86.6817 29.3182 86.8607 29.1477C87.0397 28.9773 87.176 28.7685 87.2698 28.5213L89.7883 28.6875C89.6604 29.2926 89.3983 29.821 89.002 30.2727C88.61 30.7202 88.1029 31.0696 87.4807 31.321C86.8628 31.5682 86.1491 31.6918 85.3394 31.6918ZM91.6228 31.5V21.6818H94.2627V23.3949H94.365C94.5439 22.7855 94.8444 22.3253 95.2662 22.0142C95.6881 21.6989 96.1739 21.5412 96.7236 21.5412C96.86 21.5412 97.007 21.5497 97.1647 21.5668C97.3224 21.5838 97.4608 21.6072 97.5802 21.6371V24.0533C97.4523 24.0149 97.2755 23.9808 97.0496 23.951C96.8238 23.9212 96.6171 23.9062 96.4296 23.9062C96.029 23.9062 95.6711 23.9936 95.3557 24.1683C95.0447 24.3388 94.7975 24.5774 94.6143 24.8842C94.4353 25.1911 94.3458 25.5447 94.3458 25.9453V31.5H91.6228ZM103.005 31.6918C101.995 31.6918 101.126 31.4872 100.397 31.0781C99.673 30.6648 99.1148 30.081 98.7227 29.3267C98.3307 28.5682 98.1347 27.6712 98.1347 26.6357C98.1347 25.6257 98.3307 24.7393 98.7227 23.9766C99.1148 23.2138 99.6666 22.6193 100.378 22.1932C101.094 21.767 101.934 21.554 102.897 21.554C103.544 21.554 104.147 21.6584 104.706 21.8672C105.268 22.0717 105.758 22.3807 106.176 22.794C106.598 23.2074 106.926 23.7273 107.16 24.3537C107.395 24.9759 107.512 25.7045 107.512 26.5398V27.2876H99.2213V25.6001H104.949C104.949 25.2081 104.863 24.8608 104.693 24.5582C104.522 24.2557 104.286 24.0192 103.983 23.8487C103.685 23.674 103.338 23.5866 102.941 23.5866C102.528 23.5866 102.162 23.6825 101.842 23.8743C101.527 24.0618 101.28 24.3153 101.101 24.6349C100.922 24.9503 100.83 25.3018 100.826 25.6896V27.294C100.826 27.7798 100.915 28.1996 101.094 28.5533C101.277 28.907 101.535 29.1797 101.868 29.3714C102.2 29.5632 102.594 29.6591 103.05 29.6591C103.353 29.6591 103.63 29.6165 103.881 29.5312C104.133 29.446 104.348 29.3182 104.527 29.1477C104.706 28.9773 104.842 28.7685 104.936 28.5213L107.454 28.6875C107.326 29.2926 107.064 29.821 106.668 30.2727C106.276 30.7202 105.769 31.0696 105.147 31.321C104.529 31.5682 103.815 31.6918 103.005 31.6918Z" fill="black"/>
<a href="https://docs.google.com/spreadsheets/d/1baz-zCC-P3SLjLJ96xyrXEW9O7do_Otjowb_AS44Pv4/edit?usp=sharing">
<rect fill="black" fill-opacity="0" x="9.79785" y="0.107955" width="90.4043" height="21.7841"/>
</a>
</g>
<defs>
<filter id="filter0_d_1451_25551" x="0" y="0" width="126" height="50" filterUnits="userSpaceOnUse" color-interpolation-filters="sRGB">
<feFlood flood-opacity="0" result="BackgroundImageFix"/>
<feColorMatrix in="SourceAlpha" type="matrix" values="0 0 0 0 0 0 0 0 0 0 0 0 0 0 0 0 0 0 127 0" result="hardAlpha"/>
<feOffset dy="1"/>
<feComposite in2="hardAlpha" operator="out"/>
<feColorMatrix type="matrix" values="0 0 0 0 0 0 0 0 0 0 0 0 0 0 0 0 0 0 1 0"/>
<feBlend mode="normal" in2="BackgroundImageFix" result="effect1_dropShadow_1451_25551"/>
<feBlend mode="normal" in="SourceGraphic" in2="effect1_dropShadow_1451_25551" result="shape"/>
</filter>
</defs>
</svg>
