<svg width="18" height="18" viewBox="0 0 18 18" fill="none" xmlns="http://www.w3.org/2000/svg">
<path fill-rule="evenodd" clip-rule="evenodd" d="M9 0C13.9706 0 18 4.02944 18 9C18 13.9706 13.9706 18 9 18C4.02944 18 0 13.9706 0 9C0 4.02944 4.02944 0 9 0ZM9.0005 1.0481C13.3919 1.04859 16.9514 4.60882 16.9511 9.0002C16.9508 13.3916 13.3907 16.9513 8.9993 16.9511C4.60792 16.9509 1.0481 13.391 1.0481 8.9996C1.04816 6.89059 1.88604 4.86799 3.37742 3.37678C4.8688 1.88558 6.89149 1.04792 9.0005 1.0481ZM6 4.50011C5.60314 4.49536 5.22096 4.65068 4.93902 4.9313C4.65709 5.21193 4.49895 5.59441 4.50001 5.99312C4.50001 6.82535 5.17158 7.5 6 7.5C6.82842 7.5 7.49999 6.82535 7.49999 5.99312C7.50105 5.59441 7.34291 5.21193 7.06098 4.9313C6.77904 4.65068 6.39686 4.49536 6 4.50011ZM14.9996 10.5503C14.5204 13.14 12.0209 15.3023 9.0007 15.3023C6.0046 15.3023 3.5197 13.1715 3.01232 10.611C2.9095 9.97205 3.43285 9.8213 3.92582 9.94055C5.57497 10.4174 7.28523 10.6494 9.00182 10.629C10.7145 10.6489 12.4209 10.4177 14.0666 9.9428C14.5458 9.8213 15.059 9.95855 14.9996 10.5503ZM13.3706 10.9095C13.3238 10.9275 13.2763 10.941 13.2284 10.9567C13.2234 10.959 13.3818 10.9072 13.3771 10.9095C11.954 11.3012 10.483 11.4913 9.00713 11.4742C7.24583 11.4742 5.6706 11.2785 4.58655 10.8892C3.80063 10.6552 3.95138 11.58 4.50375 11.8635C5.91687 12.5068 7.45434 12.831 9.0069 12.813C10.8537 12.813 12.4994 12.3832 13.5863 11.8275C14.1007 11.4967 14.2024 10.6102 13.3706 10.9095ZM12.0009 4.5001C11.6041 4.49539 11.222 4.64956 10.94 4.92809C10.6581 5.20663 10.4999 5.58628 10.5009 5.98207C10.493 6.52171 10.7771 7.02378 11.2444 7.29591C11.7117 7.56803 12.2898 7.56803 12.7571 7.29591C13.2244 7.02378 13.5085 6.52171 13.5006 5.98207C13.5015 5.58634 13.3434 5.20674 13.0616 4.92821C12.7797 4.64968 12.3976 4.49548 12.0009 4.5001Z" fill="#B8B8B8"/>
</svg>
