<svg width="285" height="370" viewBox="0 0 285 370" fill="none" xmlns="http://www.w3.org/2000/svg">
<g clip-path="url(#clip0_1451_25634)">
<g filter="url(#filter0_d_1451_25634)">
<g filter="url(#filter1_d_1451_25634)">
<path d="M37.7248 119.772C30.5521 100.068 40.3225 77.7147 59.8288 70.1653C64.3856 68.4017 74.0627 64.8739 98.0843 56.2642C100.568 55.3739 103.382 55.5308 105.707 56.7229L202.297 106.244L244.572 216.941C252.024 236.453 242.566 258.376 223.2 266.152C196.078 277.044 173.007 285.883 145.26 295.936C125.947 302.933 104.595 293.27 96.9389 274.192C75.3835 220.481 58.5483 176.975 37.7248 119.772Z" fill="url(#paint0_linear_1451_25634)"/>
<path d="M37.7248 119.772C30.5521 100.068 40.3225 77.7147 59.8288 70.1653C64.3856 68.4017 74.0627 64.8739 98.0843 56.2642C100.568 55.3739 103.382 55.5308 105.707 56.7229L202.297 106.244L244.572 216.941C252.024 236.453 242.566 258.376 223.2 266.152C196.078 277.044 173.007 285.883 145.26 295.936C125.947 302.933 104.595 293.27 96.9389 274.192C75.3835 220.481 58.5483 176.975 37.7248 119.772Z" fill="url(#paint1_linear_1451_25634)" fill-opacity="0.2"/>
<path d="M37.7248 119.772C30.5521 100.068 40.3225 77.7147 59.8288 70.1653C64.3856 68.4017 74.0627 64.8739 98.0843 56.2642C100.568 55.3739 103.382 55.5308 105.707 56.7229L202.297 106.244L244.572 216.941C252.024 236.453 242.566 258.376 223.2 266.152C196.078 277.044 173.007 285.883 145.26 295.936C125.947 302.933 104.595 293.27 96.9389 274.192C75.3835 220.481 58.5483 176.975 37.7248 119.772Z" stroke="url(#paint2_linear_1451_25634)" stroke-width="3"/>
</g>
<g filter="url(#filter2_d_1451_25634)">
<path d="M143.171 126.013C131.048 129.714 118.144 122.857 114.54 110.704C108.286 89.6149 105.992 85.3786 101.155 62.6392C100.171 58.0104 104.728 54.176 109.112 55.9597C138.812 68.0458 161.841 80.1084 195.949 99.3534C200.391 101.86 199.811 108.43 195.017 110.17C157.957 123.611 166.665 118.841 143.171 126.013Z" fill="url(#paint3_linear_1451_25634)"/>
</g>
<g filter="url(#filter3_d_1451_25634)">
<path d="M78.7456 177.541C77.4774 174.469 79.0463 170.894 82.162 169.755L139.534 148.79C142.196 147.818 145.102 149.099 146.186 151.724C147.372 154.597 145.925 157.942 143.023 159.039L85.865 180.634C83.0273 181.706 79.905 180.35 78.7456 177.541Z" fill="url(#paint4_linear_1451_25634)"/>
</g>
<g filter="url(#filter4_f_1451_25634)">
<path d="M79.9531 173.726L139.615 151.148L144.791 151.714L83.2958 174.536L79.9531 173.726Z" fill="white" fill-opacity="0.59"/>
</g>
<g filter="url(#filter5_f_1451_25634)">
<path d="M82.7598 180.525L145.412 156.105L142.602 158.441L85.354 180.992L82.7598 180.525Z" fill="#000852" fill-opacity="0.54"/>
</g>
<g filter="url(#filter6_f_1451_25634)">
<path d="M92.6289 205.742L192.404 168.172L190.104 172.456L96.4579 207.698L92.6289 205.742Z" fill="#000852" fill-opacity="0.26"/>
</g>
<g filter="url(#filter7_f_1451_25634)">
<path d="M101.801 230.155L201.576 192.585L199.276 196.869L105.63 232.111L101.801 230.155Z" fill="#000852" fill-opacity="0.26"/>
</g>
<g filter="url(#filter8_f_1451_25634)">
<path d="M92.1836 199.145L184.09 164.931L191.008 166.178L95.2671 200.761L92.1836 199.145Z" fill="white" fill-opacity="0.59"/>
</g>
<g filter="url(#filter9_f_1451_25634)">
<path d="M101.355 223.558L193.261 189.345L200.18 190.591L104.439 225.175L101.355 223.558Z" fill="white" fill-opacity="0.59"/>
</g>
<g filter="url(#filter10_d_1451_25634)">
<path d="M88.9969 204.292C87.7414 201.09 89.359 197.484 92.5854 196.292L186.588 161.573C189.489 160.501 192.717 161.949 193.846 164.829C194.998 167.767 193.532 171.077 190.582 172.198L96.9106 207.797C93.7588 208.995 90.2276 207.431 88.9969 204.292Z" fill="url(#paint5_linear_1451_25634)"/>
</g>
<g filter="url(#filter11_d_1451_25634)">
<path d="M98.1707 228.705C96.9152 225.503 98.5328 221.897 101.759 220.706L195.762 185.987C198.663 184.915 201.891 186.363 203.02 189.243C204.172 192.18 202.706 195.491 199.756 196.612L106.084 232.211C102.933 233.409 99.4015 231.844 98.1707 228.705Z" fill="url(#paint6_linear_1451_25634)"/>
</g>
<g filter="url(#filter12_f_1451_25634)">
<path d="M89.877 199.064L184.666 163.109L192.314 162.735L94.7145 199.305L89.877 199.064Z" fill="white" fill-opacity="0.59"/>
</g>
<g filter="url(#filter13_f_1451_25634)">
<path d="M99.0488 223.477L193.838 187.523L201.486 187.149L103.886 223.718L99.0488 223.477Z" fill="white" fill-opacity="0.59"/>
</g>
</g>
</g>
<defs>
<filter id="filter0_d_1451_25634" x="5" y="-20" width="308.094" height="355.856" filterUnits="userSpaceOnUse" color-interpolation-filters="sRGB">
<feFlood flood-opacity="0" result="BackgroundImageFix"/>
<feColorMatrix in="SourceAlpha" type="matrix" values="0 0 0 0 0 0 0 0 0 0 0 0 0 0 0 0 0 0 127 0" result="hardAlpha"/>
<feOffset dx="17" dy="-8"/>
<feGaussianBlur stdDeviation="16"/>
<feComposite in2="hardAlpha" operator="out"/>
<feColorMatrix type="matrix" values="0 0 0 0 0 0 0 0 0 0 0 0 0 0 0 0 0 0 0.06 0"/>
<feBlend mode="normal" in2="BackgroundImageFix" result="effect1_dropShadow_1451_25634"/>
<feBlend mode="normal" in="SourceGraphic" in2="effect1_dropShadow_1451_25634" result="shape"/>
</filter>
<filter id="filter1_d_1451_25634" x="26.875" y="47.1957" width="248.74" height="279.517" filterUnits="userSpaceOnUse" color-interpolation-filters="sRGB">
<feFlood flood-opacity="0" result="BackgroundImageFix"/>
<feColorMatrix in="SourceAlpha" type="matrix" values="0 0 0 0 0 0 0 0 0 0 0 0 0 0 0 0 0 0 127 0" result="hardAlpha"/>
<feOffset dx="10" dy="10"/>
<feGaussianBlur stdDeviation="8.5"/>
<feComposite in2="hardAlpha" operator="out"/>
<feColorMatrix type="matrix" values="0 0 0 0 0 0 0 0 0 0 0 0 0 0 0 0 0 0 0.15 0"/>
<feBlend mode="normal" in2="BackgroundImageFix" result="effect1_dropShadow_1451_25634"/>
<feBlend mode="normal" in="SourceGraphic" in2="effect1_dropShadow_1451_25634" result="shape"/>
</filter>
<filter id="filter2_d_1451_25634" x="63.0195" y="44.5134" width="149.951" height="123.503" filterUnits="userSpaceOnUse" color-interpolation-filters="sRGB">
<feFlood flood-opacity="0" result="BackgroundImageFix"/>
<feColorMatrix in="SourceAlpha" type="matrix" values="0 0 0 0 0 0 0 0 0 0 0 0 0 0 0 0 0 0 127 0" result="hardAlpha"/>
<feOffset dx="-12" dy="15"/>
<feGaussianBlur stdDeviation="13"/>
<feComposite in2="hardAlpha" operator="out"/>
<feColorMatrix type="matrix" values="0 0 0 0 0 0 0 0 0 0 0 0 0 0 0 0 0 0 0.15 0"/>
<feBlend mode="normal" in2="BackgroundImageFix" result="effect1_dropShadow_1451_25634"/>
<feBlend mode="normal" in="SourceGraphic" in2="effect1_dropShadow_1451_25634" result="shape"/>
</filter>
<filter id="filter3_d_1451_25634" x="74.3047" y="148.466" width="76.2969" height="40.5347" filterUnits="userSpaceOnUse" color-interpolation-filters="sRGB">
<feFlood flood-opacity="0" result="BackgroundImageFix"/>
<feColorMatrix in="SourceAlpha" type="matrix" values="0 0 0 0 0 0 0 0 0 0 0 0 0 0 0 0 0 0 127 0" result="hardAlpha"/>
<feOffset dy="4"/>
<feGaussianBlur stdDeviation="2"/>
<feComposite in2="hardAlpha" operator="out"/>
<feColorMatrix type="matrix" values="0 0 0 0 0 0 0 0 0 0 0 0 0 0 0 0 0 0 0.25 0"/>
<feBlend mode="normal" in2="BackgroundImageFix" result="effect1_dropShadow_1451_25634"/>
<feBlend mode="normal" in="SourceGraphic" in2="effect1_dropShadow_1451_25634" result="shape"/>
</filter>
<filter id="filter4_f_1451_25634" x="73.9531" y="145.148" width="76.8379" height="35.3882" filterUnits="userSpaceOnUse" color-interpolation-filters="sRGB">
<feFlood flood-opacity="0" result="BackgroundImageFix"/>
<feBlend mode="normal" in="SourceGraphic" in2="BackgroundImageFix" result="shape"/>
<feGaussianBlur stdDeviation="3" result="effect1_foregroundBlur_1451_25634"/>
</filter>
<filter id="filter5_f_1451_25634" x="76.7598" y="150.105" width="74.6523" height="36.8862" filterUnits="userSpaceOnUse" color-interpolation-filters="sRGB">
<feFlood flood-opacity="0" result="BackgroundImageFix"/>
<feBlend mode="normal" in="SourceGraphic" in2="BackgroundImageFix" result="shape"/>
<feGaussianBlur stdDeviation="3" result="effect1_foregroundBlur_1451_25634"/>
</filter>
<filter id="filter6_f_1451_25634" x="86.6289" y="162.172" width="111.775" height="51.526" filterUnits="userSpaceOnUse" color-interpolation-filters="sRGB">
<feFlood flood-opacity="0" result="BackgroundImageFix"/>
<feBlend mode="normal" in="SourceGraphic" in2="BackgroundImageFix" result="shape"/>
<feGaussianBlur stdDeviation="3" result="effect1_foregroundBlur_1451_25634"/>
</filter>
<filter id="filter7_f_1451_25634" x="95.8008" y="186.585" width="111.775" height="51.526" filterUnits="userSpaceOnUse" color-interpolation-filters="sRGB">
<feFlood flood-opacity="0" result="BackgroundImageFix"/>
<feBlend mode="normal" in="SourceGraphic" in2="BackgroundImageFix" result="shape"/>
<feGaussianBlur stdDeviation="3" result="effect1_foregroundBlur_1451_25634"/>
</filter>
<filter id="filter8_f_1451_25634" x="86.1836" y="158.931" width="110.824" height="47.8303" filterUnits="userSpaceOnUse" color-interpolation-filters="sRGB">
<feFlood flood-opacity="0" result="BackgroundImageFix"/>
<feBlend mode="normal" in="SourceGraphic" in2="BackgroundImageFix" result="shape"/>
<feGaussianBlur stdDeviation="3" result="effect1_foregroundBlur_1451_25634"/>
</filter>
<filter id="filter9_f_1451_25634" x="95.3555" y="183.344" width="110.824" height="47.8303" filterUnits="userSpaceOnUse" color-interpolation-filters="sRGB">
<feFlood flood-opacity="0" result="BackgroundImageFix"/>
<feBlend mode="normal" in="SourceGraphic" in2="BackgroundImageFix" result="shape"/>
<feGaussianBlur stdDeviation="3" result="effect1_foregroundBlur_1451_25634"/>
</filter>
<filter id="filter10_d_1451_25634" x="84.5703" y="161.22" width="113.67" height="54.98" filterUnits="userSpaceOnUse" color-interpolation-filters="sRGB">
<feFlood flood-opacity="0" result="BackgroundImageFix"/>
<feColorMatrix in="SourceAlpha" type="matrix" values="0 0 0 0 0 0 0 0 0 0 0 0 0 0 0 0 0 0 127 0" result="hardAlpha"/>
<feOffset dy="4"/>
<feGaussianBlur stdDeviation="2"/>
<feComposite in2="hardAlpha" operator="out"/>
<feColorMatrix type="matrix" values="0 0 0 0 0 0 0 0 0 0 0 0 0 0 0 0 0 0 0.25 0"/>
<feBlend mode="normal" in2="BackgroundImageFix" result="effect1_dropShadow_1451_25634"/>
<feBlend mode="normal" in="SourceGraphic" in2="effect1_dropShadow_1451_25634" result="shape"/>
</filter>
<filter id="filter11_d_1451_25634" x="93.7441" y="185.633" width="113.67" height="54.98" filterUnits="userSpaceOnUse" color-interpolation-filters="sRGB">
<feFlood flood-opacity="0" result="BackgroundImageFix"/>
<feColorMatrix in="SourceAlpha" type="matrix" values="0 0 0 0 0 0 0 0 0 0 0 0 0 0 0 0 0 0 127 0" result="hardAlpha"/>
<feOffset dy="4"/>
<feGaussianBlur stdDeviation="2"/>
<feComposite in2="hardAlpha" operator="out"/>
<feColorMatrix type="matrix" values="0 0 0 0 0 0 0 0 0 0 0 0 0 0 0 0 0 0 0.25 0"/>
<feBlend mode="normal" in2="BackgroundImageFix" result="effect1_dropShadow_1451_25634"/>
<feBlend mode="normal" in="SourceGraphic" in2="effect1_dropShadow_1451_25634" result="shape"/>
</filter>
<filter id="filter12_f_1451_25634" x="83.877" y="156.735" width="114.438" height="48.5695" filterUnits="userSpaceOnUse" color-interpolation-filters="sRGB">
<feFlood flood-opacity="0" result="BackgroundImageFix"/>
<feBlend mode="normal" in="SourceGraphic" in2="BackgroundImageFix" result="shape"/>
<feGaussianBlur stdDeviation="3" result="effect1_foregroundBlur_1451_25634"/>
</filter>
<filter id="filter13_f_1451_25634" x="93.0488" y="181.149" width="114.438" height="48.5695" filterUnits="userSpaceOnUse" color-interpolation-filters="sRGB">
<feFlood flood-opacity="0" result="BackgroundImageFix"/>
<feBlend mode="normal" in="SourceGraphic" in2="BackgroundImageFix" result="shape"/>
<feGaussianBlur stdDeviation="3" result="effect1_foregroundBlur_1451_25634"/>
</filter>
<linearGradient id="paint0_linear_1451_25634" x1="35.2035" y1="122.216" x2="193.882" y2="77.4413" gradientUnits="userSpaceOnUse">
<stop stop-color="#E1E1E1"/>
<stop offset="0.302349" stop-color="#F9F9F9"/>
<stop offset="0.608197" stop-color="#F2F2F2"/>
<stop offset="1" stop-color="#DADADA"/>
</linearGradient>
<linearGradient id="paint1_linear_1451_25634" x1="83.486" y1="65.6682" x2="177.083" y2="285.629" gradientUnits="userSpaceOnUse">
<stop stop-color="white"/>
<stop offset="0.442708" stop-color="#BCBCBC"/>
<stop offset="1" stop-color="#6B6B6B"/>
</linearGradient>
<linearGradient id="paint2_linear_1451_25634" x1="83.486" y1="65.6682" x2="135.578" y2="160.727" gradientUnits="userSpaceOnUse">
<stop stop-color="#F1F1F1"/>
<stop offset="1" stop-color="#D9D9DB"/>
</linearGradient>
<linearGradient id="paint3_linear_1451_25634" x1="196.174" y1="136.667" x2="67.0311" y2="105.471" gradientUnits="userSpaceOnUse">
<stop stop-color="#DFDFDF"/>
<stop offset="0.505208" stop-color="#F7F7F7"/>
<stop offset="0.96875" stop-color="#DFDFDF"/>
</linearGradient>
<linearGradient id="paint4_linear_1451_25634" x1="109.379" y1="157.155" x2="115.795" y2="171.544" gradientUnits="userSpaceOnUse">
<stop stop-color="#E082E8"/>
<stop offset="1" stop-color="#8C2EFF"/>
</linearGradient>
<linearGradient id="paint5_linear_1451_25634" x1="138.878" y1="178.074" x2="143.757" y2="190.556" gradientUnits="userSpaceOnUse">
<stop stop-color="#E082E8"/>
<stop offset="0.875" stop-color="#8C2EFF"/>
</linearGradient>
<linearGradient id="paint6_linear_1451_25634" x1="148.052" y1="202.487" x2="152.93" y2="214.97" gradientUnits="userSpaceOnUse">
<stop stop-color="#E082E8"/>
<stop offset="0.875" stop-color="#8C2EFF"/>
</linearGradient>
<clipPath id="clip0_1451_25634">
<rect width="284.093" height="643.712" rx="5" fill="white"/>
</clipPath>
</defs>
</svg>
