<svg width="112" height="111" viewBox="0 0 112 111" fill="none" xmlns="http://www.w3.org/2000/svg">
<g filter="url(#filter0_d_1460_1220)">
<path d="M21 49C21 32.4315 34.4315 19 51 19H61C77.5685 19 91 32.4315 91 49V58.1566C91 74.7252 77.5685 88.1566 61 88.1566H51C34.4315 88.1566 21 74.7252 21 58.1566V49Z" fill="url(#paint0_linear_1460_1220)" shape-rendering="crispEdges"/>
</g>
<g filter="url(#filter1_d_1460_1220)">
<path d="M76.0243 52.964C76.7817 53.3153 76.8005 54.3852 76.0559 54.7629L46.9801 69.5121C46.3217 69.8461 45.5408 69.376 45.5278 68.6378L45.3311 57.4318C45.3226 56.9524 45.6556 56.5345 46.1248 56.4357L52.3918 55.1154C53.4347 54.8957 53.4562 53.4145 52.42 53.1647L45.9776 51.6116C45.5348 51.5048 45.2201 51.1124 45.2121 50.657L45.028 40.1694C45.015 39.4313 45.7789 38.934 46.4486 39.2447L76.0243 52.964Z" fill="url(#paint1_linear_1460_1220)"/>
</g>
<defs>
<filter id="filter0_d_1460_1220" x="0.799999" y="0.799999" width="110.4" height="109.557" filterUnits="userSpaceOnUse" color-interpolation-filters="sRGB">
<feFlood flood-opacity="0" result="BackgroundImageFix"/>
<feColorMatrix in="SourceAlpha" type="matrix" values="0 0 0 0 0 0 0 0 0 0 0 0 0 0 0 0 0 0 127 0" result="hardAlpha"/>
<feOffset dy="2"/>
<feGaussianBlur stdDeviation="10.1"/>
<feComposite in2="hardAlpha" operator="out"/>
<feColorMatrix type="matrix" values="0 0 0 0 0.882353 0 0 0 0 0.513726 0 0 0 0 0.917647 0 0 0 0.93 0"/>
<feBlend mode="normal" in2="BackgroundImageFix" result="effect1_dropShadow_1460_1220"/>
<feBlend mode="normal" in="SourceGraphic" in2="effect1_dropShadow_1460_1220" result="shape"/>
</filter>
<filter id="filter1_d_1460_1220" x="41.0273" y="39.1506" width="39.5762" height="38.4708" filterUnits="userSpaceOnUse" color-interpolation-filters="sRGB">
<feFlood flood-opacity="0" result="BackgroundImageFix"/>
<feColorMatrix in="SourceAlpha" type="matrix" values="0 0 0 0 0 0 0 0 0 0 0 0 0 0 0 0 0 0 127 0" result="hardAlpha"/>
<feOffset dy="4"/>
<feGaussianBlur stdDeviation="2"/>
<feComposite in2="hardAlpha" operator="out"/>
<feColorMatrix type="matrix" values="0 0 0 0 0 0 0 0 0 0 0 0 0 0 0 0 0 0 0.25 0"/>
<feBlend mode="normal" in2="BackgroundImageFix" result="effect1_dropShadow_1460_1220"/>
<feBlend mode="normal" in="SourceGraphic" in2="effect1_dropShadow_1460_1220" result="shape"/>
</filter>
<linearGradient id="paint0_linear_1460_1220" x1="29.0121" y1="27.4337" x2="61.9036" y2="53.5783" gradientUnits="userSpaceOnUse">
<stop offset="0.0486737" stop-color="#8C2EFF" stop-opacity="0.98"/>
<stop offset="1" stop-color="#E082E8"/>
</linearGradient>
<linearGradient id="paint1_linear_1460_1220" x1="77.8932" y1="53.8309" x2="45.2779" y2="54.4036" gradientUnits="userSpaceOnUse">
<stop stop-color="#E5D8E6"/>
<stop offset="1" stop-color="white"/>
</linearGradient>
</defs>
</svg>
