<svg width="18" height="18" viewBox="0 0 18 18" fill="none" xmlns="http://www.w3.org/2000/svg">
<path fill-rule="evenodd" clip-rule="evenodd" d="M12.4822 15.6443C11.4416 16.1908 10.2569 16.5 9 16.5C7.74308 16.5 6.55837 16.1908 5.51779 15.6443C5.34504 15.2133 5.25 14.7427 5.25 14.25C5.25 12.1789 6.92893 10.5 9 10.5C11.0711 10.5 12.75 12.1789 12.75 14.25C12.75 14.7427 12.655 15.2133 12.4822 15.6443ZM14.2489 14.3571C14.2496 14.3215 14.25 14.2858 14.25 14.25C14.25 12.2306 13.1098 10.4775 11.4381 9.59928C12.2411 8.91151 12.75 7.89018 12.75 6.74999C12.75 4.67893 11.0711 2.99999 9 2.99999C6.92893 2.99999 5.25 4.67893 5.25 6.74999C5.25 7.89018 5.75885 8.91151 6.56185 9.59928C4.89015 10.4775 3.75 12.2306 3.75 14.25C3.75 14.2858 3.75036 14.3215 3.75107 14.3571C2.36192 12.9959 1.5 11.0986 1.5 9C1.5 4.85786 4.85786 1.5 9 1.5C13.1421 1.5 16.5 4.85786 16.5 9C16.5 11.0986 15.6381 12.9959 14.2489 14.3571ZM13.2899 16.9137C16.0955 15.3897 18 12.4173 18 9C18 4.02944 13.9706 0 9 0C4.02944 0 0 4.02944 0 9C0 12.2747 1.74898 15.141 4.36379 16.7156C5.71013 17.5263 7.28601 17.9946 8.97089 18M9.00614 18C10.5572 17.999 12.0164 17.6056 13.2899 16.9137L9.00614 18ZM9 9C10.2426 9 11.25 7.99264 11.25 6.74999C11.25 5.50735 10.2426 4.49999 9 4.49999C7.75736 4.49999 6.75 5.50735 6.75 6.74999C6.75 7.99264 7.75736 9 9 9Z" fill="#B8B8B8"/>
</svg>
