<svg width="52" height="47" viewBox="0 0 52 47" fill="none" xmlns="http://www.w3.org/2000/svg">
<path d="M20.2 46.2H0.200001V21.4C0.200001 14.7333 1.53333 9.66666 4.2 6.19999C7.13333 2.59999 12.0667 0.533322 19 -1.19209e-05V11.8C16.6 11.8 14.6 12.8 13 14.8C12.2 15.8667 11.8 17.9333 11.8 21V24.8H20.2V46.2ZM51.4 46.2H31.4V21.4C31.4 14.7333 32.6 9.86666 35 6.8C38.2 2.79999 43.2667 0.533322 50.2 -1.19209e-05V11.8C46.0667 11.8 43.7333 13.8667 43.2 18C43.0667 18.5333 43 19.5333 43 21V24.8H51.4V46.2Z" fill="url(#paint0_linear_1451_25669)"/>
<defs>
<linearGradient id="paint0_linear_1451_25669" x1="22.9609" y1="12.0708" x2="62.3216" y2="66.0333" gradientUnits="userSpaceOnUse">
<stop stop-color="#E082E8"/>
<stop offset="1" stop-color="#8C2EFF"/>
</linearGradient>
</defs>
</svg>
