<svg width="38" height="38" viewBox="0 0 38 38" fill="none" xmlns="http://www.w3.org/2000/svg">
<g id="confetti">
<g id="Dark tone">
<path fill-rule="evenodd" clip-rule="evenodd" d="M10.0938 4.15625C10.0938 2.84458 11.1571 1.78125 12.4688 1.78125C13.7804 1.78125 14.8438 2.84458 14.8438 4.15625C14.8438 5.46793 13.7804 6.53125 12.4688 6.53125C11.1571 6.53125 10.0938 5.46793 10.0938 4.15625Z" fill="black"/>
<path d="M25.1834 0.313387C25.9746 0.0195808 26.9069 0.317143 27.3188 1.11014C28.9684 4.28625 28.8188 6.95856 27.5378 9.3862C27.2352 9.95967 26.8989 10.4118 26.5488 10.782C30.7509 14.0712 33.6384 19.4486 33.9288 24.7919C34.3622 24.8641 34.7704 25.0843 35.0685 25.4488L36.1271 26.7433C36.7945 27.5594 36.6761 28.8668 35.6454 29.4095C34.9063 29.7987 34.0898 30.1149 33.2144 30.2888C31.9773 33.4908 28.2982 34.8761 24.762 34.8851L6.27441 34.9322C4.0894 34.9378 2.60086 32.7227 3.43702 30.7098L10.5869 13.498C11.8736 10.4004 14.3291 7.60347 17.6914 7.57548C19.0367 7.56428 20.348 7.76866 21.6047 8.15446C21.8407 7.98021 22.0852 7.77909 22.3416 7.53715C23.3067 6.62635 23.5353 5.81253 23.5046 5.11774C23.4718 4.3754 23.1437 3.68746 22.8122 3.01965C22.3664 2.12133 22.8638 1.1748 23.7143 0.858968L25.1834 0.313387Z" fill="black"/>
<path d="M36.8125 17.8125C36.8125 18.4683 36.2808 19 35.625 19C34.9692 19 34.4375 18.4683 34.4375 17.8125C34.4375 17.1567 34.9692 16.625 35.625 16.625C36.2808 16.625 36.8125 17.1567 36.8125 17.8125Z" fill="black"/>
<path d="M3.83713 11.1003C4.06338 10.5499 4.84287 10.5499 5.06912 11.1003L5.44212 12.0076C5.50975 12.1721 5.64037 12.3028 5.80489 12.3704L6.71221 12.7434C7.2626 12.9696 7.2626 13.7491 6.71221 13.9754L5.80489 14.3484C5.64037 14.416 5.50975 14.5466 5.44212 14.7111L5.06912 15.6185C4.84287 16.1688 4.06338 16.1688 3.83713 15.6185L3.46413 14.7111C3.3965 14.5466 3.26588 14.416 3.10136 14.3484L2.19404 13.9754C1.64365 13.7491 1.64365 12.9696 2.19404 12.7434L3.10136 12.3704C3.26588 12.3028 3.3965 12.1721 3.46413 12.0076L3.83713 11.1003Z" fill="black"/>
<path d="M32.9211 7.54435C33.1509 6.98522 33.9428 6.98522 34.1727 7.54435L34.3662 8.01523C34.4349 8.18236 34.5676 8.31506 34.7348 8.38377L35.2057 8.57734C35.7648 8.80719 35.7648 9.59906 35.2057 9.82892L34.7348 10.0225C34.5676 10.0912 34.4349 10.2239 34.3662 10.391L34.1727 10.8619C33.9428 11.421 33.1509 11.421 32.9211 10.8619L32.7275 10.391C32.6588 10.2239 32.5261 10.0912 32.359 10.0225L31.8881 9.82892C31.329 9.59906 31.329 8.80719 31.8881 8.57734L32.359 8.38377C32.5261 8.31506 32.6588 8.18236 32.7275 8.01523L32.9211 7.54435Z" fill="black"/>
</g>
<g id="Mid tone">
<path d="M8.51716 21.5751L11.6832 13.9535C11.8293 13.6019 11.9887 13.2605 12.1606 12.9319C11.0597 16.4648 12.0654 21.4711 15.1225 25.9651C18.3073 30.6468 22.8335 33.4715 26.632 33.5512C26.0281 33.647 25.3998 33.696 24.7586 33.6976L15.1598 33.7221C8.28344 30.0574 7.93605 23.9581 8.51716 21.5751Z" fill="#E183EA"/>
<path d="M7.21934 24.6993L4.53333 31.1653C4.02457 32.3901 4.92885 33.7482 6.27105 33.7447L12.8858 33.7279C8.98631 31.0305 7.55121 27.5026 7.21934 24.6993Z" fill="#E183EA"/>
</g>
<g id="Light tone">
<path d="M11.2812 4.1563C11.2812 3.50046 11.8129 2.9688 12.4688 2.9688C13.1246 2.9688 13.6562 3.50046 13.6562 4.1563C13.6562 4.81214 13.1246 5.3438 12.4688 5.3438C11.8129 5.3438 11.2812 4.81214 11.2812 4.1563Z" fill="#F1EEE1"/>
<path d="M16.625 23.1563C16.625 22.5005 17.1567 21.9688 17.8125 21.9688C18.4683 21.9688 19 22.5005 19 23.1563C19 23.8121 18.4683 24.3438 17.8125 24.3438C17.1567 24.3438 16.625 23.8121 16.625 23.1563Z" fill="#F1EEE1"/>
<path d="M25.5968 1.42665C25.8733 1.32398 26.1519 1.43979 26.265 1.65751C27.743 4.50333 27.5789 6.76373 26.4875 8.83205C25.8177 10.1014 25.0744 10.5509 24.2001 11.0798C23.8879 11.2686 23.5591 11.4675 23.2109 11.7174C22.5588 12.1854 21.927 12.7977 21.3844 13.8122C20.849 14.8133 20.4133 16.1819 20.1065 18.1474C20.0328 18.6189 19.5251 18.8431 19.1655 18.6353L17.4433 17.6405C17.2192 17.5111 17.1083 17.2547 17.1637 17.0114C18.0859 12.9631 18.9003 11.5522 19.7184 10.8005C20.0945 10.4549 20.4865 10.2312 20.9849 9.94662C21.0441 9.91283 21.1048 9.87818 21.1671 9.84237C21.7471 9.50924 22.411 9.10452 23.1566 8.40083C24.3446 7.27967 24.7385 6.14179 24.691 5.06539C24.6458 4.04272 24.2 3.14466 23.8817 2.50334L23.8759 2.49173C23.821 2.38103 23.8266 2.2836 23.8625 2.20262C23.9007 2.11654 23.9854 2.02505 24.1276 1.97224L25.5968 1.42665Z" fill="#F1EEE1"/>
<path d="M25.2023 17.0444C25.4322 16.4853 26.2241 16.4853 26.4539 17.0444L26.6475 17.5153C26.7162 17.6824 26.8489 17.8151 27.016 17.8838L27.4869 18.0774C28.046 18.3072 28.046 19.0991 27.4869 19.329L27.016 19.5225C26.8489 19.5912 26.7162 19.7239 26.6475 19.8911L26.4539 20.362C26.2241 20.9211 25.4322 20.9211 25.2023 20.362L25.0088 19.8911C24.9401 19.7239 24.8074 19.5912 24.6402 19.5225L24.1693 19.329C23.6102 19.0991 23.6102 18.3072 24.1693 18.0774L24.6402 17.8838C24.8074 17.8151 24.9401 17.6824 25.0088 17.5153L25.2023 17.0444Z" fill="#F1EEE1"/>
<path d="M22.4964 26.2796C23.1485 25.8768 24.1205 25.3581 25.1532 25.0829C26.1925 24.806 27.2011 24.7987 28.0164 25.2859C28.9988 25.873 29.7645 26.3081 30.5765 26.4507C31.4209 26.599 32.2424 26.4234 33.3324 26.0045C33.6378 25.8871 33.9648 25.9751 34.1492 26.2006L35.2078 27.4951C35.471 27.817 35.3623 28.2166 35.0922 28.3588C33.1294 29.3923 30.6498 29.8134 27.9387 28.006C27.2851 27.5703 26.549 27.5418 25.8905 27.6787C25.2376 27.8145 24.6099 28.1216 24.0947 28.4338C23.5831 28.7437 22.9625 28.5326 22.7893 28.1259L22.3047 26.9881C22.1817 26.6993 22.2819 26.4121 22.4964 26.2796Z" fill="#F1EEE1"/>
</g>
</g>
</svg>
